<svg xmlns="http://www.w3.org/2000/svg" viewBox="0 0 100 100">
  <rect width="100" height="100" fill="#080808" rx="14"/>
  <path fill-rule="evenodd" fill="#f0ebe3" d="M 30.65,5.00 L 19.70,35.50 L 16.10,46.67 L 11.75,58.17 L 5.60,76.50 C 2.00,88.00 8.00,97.00 19.00,97.00 C 30.00,97.00 37.00,87.00 39.20,76.50 L 42.80,66.17 L 43.40,65.50 L 53.90,92.67 L 54.35,93.17 L 60.80,93.17 L 64.55,92.67 L 48.80,51.67 L 54.65,33.83 L 58.85,22.50 L 59.60,23.33 L 84.50,92.67 L 84.80,93.00 L 94.85,92.83 L 94.85,91.50 L 93.20,87.83 L 89.90,78.00 L 80.45,52.67 L 75.80,38.50 L 64.25,5.83 L 63.95,5.50 L 63.05,6.17 L 60.50,12.67 L 48.05,48.33 L 47.60,48.17 L 32.60,8.33 L 31.25,5.00 Z M 26.30,22.00 L 42.35,62.50 C 39.00,72.00 31.00,93.50 19.00,93.50 C 12.00,93.50 5.40,81.70 7.70,75.17 Z"/>
</svg>